Normalized EMG Linear Envelopes
nRows=250
nColumns=4

endheader
time	 med_gas_r	  soleus_r	 tib_ant_r	
3.65904	  0.075897	  0.087515	  0.040721	
3.6923	  0.077839	  0.087450	  0.042347	
3.72557	  0.079466	  0.087313	  0.043769	
3.75883	  0.080538	  0.087070	  0.044858	
3.7921	  0.080914	  0.086694	  0.045579	
3.82536	  0.080621	  0.086151	  0.045943	
3.85862	  0.079860	  0.085410	  0.045946	
3.89189	  0.078928	  0.084459	  0.045565	
3.92515	  0.078083	  0.083310	  0.044838	
3.95842	  0.077470	  0.082011	  0.043930	
3.99168	  0.077158	  0.080675	  0.043096	
4.02494	  0.077218	  0.079477	  0.042572	
4.05821	  0.077740	  0.078590	  0.042466	
4.09147	  0.078763	  0.078108	  0.042755	
4.12474	  0.080220	  0.078016	  0.043328	
4.158	  0.081924	  0.078234	  0.044041	
4.19126	  0.083612	  0.078660	  0.044713	
4.22453	  0.084987	  0.079180	  0.045118	
4.25779	  0.085782	  0.079682	  0.045037	
4.29106	  0.085856	  0.080096	  0.044382	
4.32432	  0.085263	  0.080463	  0.043292	
4.35758	  0.084237	  0.080927	  0.042094	
4.39085	  0.083059	  0.081637	  0.041141	
4.42411	  0.081946	  0.082605	  0.040636	
4.45738	  0.081032	  0.083627	  0.040586	
4.49064	  0.080424	  0.084365	  0.040871	
4.5239	  0.080224	  0.084521	  0.041353	
4.55717	  0.080476	  0.084007	  0.041922	
4.59043	  0.081118	  0.082977	  0.042497	
4.6237	  0.082039	  0.081753	  0.043049	
4.65696	  0.083210	  0.080695	  0.043651	
4.69022	  0.084779	  0.080126	  0.044537	
4.72349	  0.087002	  0.080288	  0.046133	
4.75675	  0.090028	  0.081317	  0.049070	
4.79002	  0.093693	  0.083197	  0.054212	
4.82328	  0.097508	  0.085767	  0.062594	
4.85654	  0.100899	  0.088816	  0.075136	
4.88981	  0.103558	  0.092211	  0.092148	
4.92307	  0.105657	  0.095937	  0.112888	
4.95634	  0.107723	  0.099974	  0.135583	
4.9896	  0.110273	  0.104095	  0.158012	
5.02286	  0.113500	  0.107757	  0.178346	
5.05613	  0.117209	  0.110217	  0.195709	
5.08939	  0.121006	  0.110853	  0.210147	
5.12266	  0.124504	  0.109506	  0.222130	
5.15592	  0.127449	  0.106621	  0.231954	
5.18918	  0.129763	  0.103090	  0.239419	
5.22245	  0.131561	  0.099866	  0.243974	
5.25571	  0.133101	  0.097593	  0.245259	
5.28898	  0.134633	  0.096450	  0.243659	
5.32224	  0.136213	  0.096246	  0.240484	
5.3555	  0.137672	  0.096632	  0.237660	
5.38877	  0.138779	  0.097259	  0.237145	
5.42203	  0.139497	  0.097856	  0.240372	
5.4553	  0.140111	  0.098292	  0.247922	
5.48856	  0.141158	  0.098677	  0.259491	
5.52182	  0.143193	  0.099380	  0.274183	
5.55509	  0.146491	  0.100843	  0.290849	
5.58835	  0.150838	  0.103274	  0.308126	
5.62162	  0.155539	  0.106444	  0.324129	
5.65488	  0.159694	  0.109752	  0.336271	
5.68814	  0.162552	  0.112468	  0.341755	
5.72141	  0.163722	  0.113985	  0.338687	
5.75467	  0.163174	  0.113991	  0.327101	
5.78794	  0.161178	  0.112565	  0.309137	
5.8212	  0.158299	  0.110184	  0.288213	
5.85446	  0.155348	  0.107605	  0.267759	
5.88773	  0.153163	  0.105643	  0.250252	
5.92099	  0.152307	  0.104898	  0.236864	
5.95426	  0.152957	  0.105586	  0.227634	
5.98752	  0.155076	  0.107562	  0.221932	
6.02078	  0.158605	  0.110512	  0.219035	
6.05405	  0.163347	  0.114119	  0.218547	
6.08731	  0.168651	  0.118009	  0.220325	
6.12058	  0.173336	  0.121544	  0.224036	
6.15384	  0.176171	  0.123762	  0.228831	
6.1871	  0.176627	  0.123686	  0.233545	
6.22037	  0.175250	  0.120866	  0.237136	
6.25363	  0.173334	  0.115710	  0.238907	
6.2869	  0.172126	  0.109332	  0.238484	
6.32016	  0.172139	  0.103019	  0.235868	
6.35342	  0.172961	  0.097714	  0.231568	
6.38669	  0.173608	  0.093826	  0.226512	
6.41995	  0.173168	  0.091359	  0.221650	
6.45322	  0.171388	  0.090130	  0.217608	
6.48648	  0.168806	  0.089887	  0.214603	
6.51974	  0.166320	  0.090320	  0.212460	
6.55301	  0.164519	  0.091114	  0.210564	
6.58627	  0.163331	  0.092064	  0.207976	
6.61954	  0.162259	  0.093128	  0.203927	
6.6528	  0.160904	  0.094338	  0.198414	
6.68606	  0.159219	  0.095649	  0.192272	
6.71933	  0.157338	  0.096933	  0.186574	
6.75259	  0.155334	  0.098142	  0.181901	
6.78586	  0.153267	  0.099468	  0.178157	
6.81912	  0.151380	  0.101292	  0.174991	
6.85238	  0.150084	  0.103904	  0.172280	
6.88565	  0.149645	  0.107248	  0.170187	
6.91891	  0.149929	  0.110893	  0.168864	
6.95218	  0.150519	  0.114247	  0.168193	
6.98544	  0.151104	  0.116761	  0.167818	
7.0187	  0.151723	  0.118021	  0.167326	
7.05197	  0.152620	  0.117775	  0.166387	
7.08523	  0.153833	  0.116028	  0.164819	
7.1185	  0.154951	  0.113145	  0.162665	
7.15176	  0.155293	  0.109817	  0.160272	
7.18502	  0.154402	  0.106854	  0.158193	
7.21829	  0.152428	  0.104943	  0.156895	
7.25155	  0.150047	  0.104514	  0.156460	
7.28482	  0.148032	  0.105691	  0.156569	
7.31808	  0.146873	  0.108263	  0.156791	
7.35134	  0.146699	  0.111660	  0.156923	
7.38461	  0.147398	  0.115018	  0.157013	
7.41787	  0.148709	  0.117408	  0.157058	
7.45114	  0.150210	  0.118151	  0.156750	
7.4844	  0.151358	  0.117063	  0.155609	
7.51766	  0.151649	  0.114495	  0.153434	
7.55093	  0.150843	  0.111161	  0.150562	
7.58419	  0.149128	  0.107847	  0.147628	
7.61746	  0.147119	  0.105166	  0.145033	
7.65072	  0.145641	  0.103457	  0.142686	
7.68398	  0.145334	  0.102812	  0.140247	
7.71725	  0.146351	  0.103212	  0.137568	
7.75051	  0.148357	  0.104647	  0.134846	
7.78378	  0.150822	  0.107150	  0.132366	
7.81704	  0.153314	  0.110673	  0.130189	
7.8503	  0.155560	  0.114932	  0.128180	
7.88357	  0.157337	  0.119381	  0.126325	
7.91683	  0.158401	  0.123385	  0.124983	
7.9501	  0.158551	  0.126440	  0.124793	
7.98336	  0.157763	  0.128276	  0.126396	
8.01662	  0.156258	  0.128811	  0.130225	
8.04989	  0.154450	  0.128118	  0.136401	
8.08315	  0.152738	  0.126468	  0.144599	
8.11642	  0.151269	  0.124307	  0.153904	
8.14968	  0.149815	  0.122076	  0.162903	
8.18294	  0.147934	  0.119973	  0.170168	
8.21621	  0.145376	  0.117907	  0.174879	
8.24947	  0.142452	  0.115764	  0.177133	
8.28274	  0.140048	  0.113730	  0.177671	
8.316	  0.139211	  0.112317	  0.177276	
8.34926	  0.140499	  0.111988	  0.176310	
8.38253	  0.143533	  0.112699	  0.174695	
8.41579	  0.147087	  0.113811	  0.172197	
8.44906	  0.149728	  0.114463	  0.168732	
8.48232	  0.150610	  0.114075	  0.164486	
8.51558	  0.149883	  0.112565	  0.159864	
8.54885	  0.148438	  0.110186	  0.155360	
8.58211	  0.147244	  0.107264	  0.151445	
8.61538	  0.146781	  0.104101	  0.148498	
8.64864	  0.146920	  0.101027	  0.146764	
8.6819	  0.147208	  0.098441	  0.146288	
8.71517	  0.147255	  0.096728	  0.146816	
8.74843	  0.146924	  0.096138	  0.147780	
8.7817	  0.146225	  0.096730	  0.148475	
8.81496	  0.145072	  0.098405	  0.148361	
8.84822	  0.143184	  0.100951	  0.147298	
8.88149	  0.140271	  0.104034	  0.145537	
8.91475	  0.136382	  0.107190	  0.143473	
8.94802	  0.132112	  0.109911	  0.141326	
8.98128	  0.128452	  0.111880	  0.138966	
9.01454	  0.126345	  0.113185	  0.136007	
9.04781	  0.126271	  0.114309	  0.132132	
9.08107	  0.128106	  0.115851	  0.127429	
9.11434	  0.131273	  0.118149	  0.122468	
9.1476	  0.135041	  0.121084	  0.118025	
9.18086	  0.138795	  0.124195	  0.114673	
9.21413	  0.142193	  0.126990	  0.112578	
9.24739	  0.145156	  0.129230	  0.111608	
9.28066	  0.147717	  0.130993	  0.111586	
9.31392	  0.149872	  0.132547	  0.112415	
9.34718	  0.151555	  0.134133	  0.114007	
9.38045	  0.152733	  0.135783	  0.116189	
9.41371	  0.153485	  0.137268	  0.118769	
9.44698	  0.153977	  0.138175	  0.121710	
9.48024	  0.154336	  0.138082	  0.125158	
9.5135	  0.154521	  0.136775	  0.129197	
9.54677	  0.154328	  0.134423	  0.133560	
9.58003	  0.153565	  0.131610	  0.137697	
9.6133	  0.152293	  0.129150	  0.141208	
9.64656	  0.150905	  0.127736	  0.144156	
9.67982	  0.149915	  0.127631	  0.146837	
9.71309	  0.149607	  0.128619	  0.149205	
9.74635	  0.149878	  0.130267	  0.150615	
9.77962	  0.150413	  0.132274	  0.150236	
9.81288	  0.150998	  0.134620	  0.147772	
9.84614	  0.151651	  0.137386	  0.143788	
9.87941	  0.152488	  0.140423	  0.139332	
9.91267	  0.153553	  0.143198	  0.135205	
9.94594	  0.154790	  0.144965	  0.131512	
9.9792	  0.156146	  0.145056	  0.127849	
10.0125	  0.157602	  0.143093	  0.123921	
10.0457	  0.159100	  0.139071	  0.120010	
10.079	  0.160478	  0.133409	  0.116906	
10.1123	  0.161532	  0.126952	  0.115368	
10.1455	  0.162142	  0.120793	  0.115644	
10.1788	  0.162322	  0.115902	  0.117406	
10.212	  0.162131	  0.112741	  0.120071	
10.2453	  0.161580	  0.111158	  0.123103	
10.2786	  0.160662	  0.110672	  0.126048	
10.3118	  0.159491	  0.110925	  0.128414	
10.3451	  0.158348	  0.111904	  0.129666	
10.3784	  0.157524	  0.113752	  0.129498	
10.4116	  0.157116	  0.116346	  0.128173	
10.4449	  0.157063	  0.119084	  0.126572	
10.4782	  0.157377	  0.121087	  0.125769	
10.5114	  0.158232	  0.121647	  0.126380	
10.5447	  0.159690	  0.120551	  0.128209	
10.578	  0.161371	  0.118061	  0.130471	
10.6112	  0.162525	  0.114644	  0.132386	
10.6445	  0.162551	  0.110700	  0.133650	
10.6777	  0.161427	  0.106467	  0.134486	
10.711	  0.159560	  0.102096	  0.135357	
10.7443	  0.157263	  0.097770	  0.136641	
10.7775	  0.154457	  0.093737	  0.138437	
10.8108	  0.150876	  0.090279	  0.140505	
10.8441	  0.146496	  0.087649	  0.142320	
10.8773	  0.141742	  0.086059	  0.143239	
10.9106	  0.137312	  0.085685	  0.142737	
10.9439	  0.133845	  0.086636	  0.140607	
10.9771	  0.131678	  0.088862	  0.137061	
11.0104	  0.130786	  0.092072	  0.132722	
11.0436	  0.130802	  0.095746	  0.128521	
11.0769	  0.131106	  0.099254	  0.125449	
11.1102	  0.131032	  0.102046	  0.124185	
11.1434	  0.130176	  0.103832	  0.124790	
11.1767	  0.128573	  0.104663	  0.126673	
11.21	  0.126585	  0.104842	  0.128866	
11.2432	  0.124593	  0.104693	  0.130442	
11.2765	  0.122787	  0.104337	  0.130825	
11.3098	  0.121216	  0.103654	  0.129891	
11.343	  0.119989	  0.102435	  0.127880	
11.3763	  0.119364	  0.100581	  0.125219	
11.4096	  0.119613	  0.098176	  0.122330	
11.4428	  0.120770	  0.095406	  0.119486	
11.4761	  0.122537	  0.092450	  0.116774	
11.5093	  0.124414	  0.089492	  0.114184	
11.5426	  0.125922	  0.086828	  0.111731	
11.5759	  0.126702	  0.084943	  0.109497	
11.6091	  0.126504	  0.084397	  0.107564	
11.6424	  0.125229	  0.085565	  0.105936	
11.6757	  0.123094	  0.088375	  0.104563	
11.7089	  0.120758	  0.092264	  0.103431	
11.7422	  0.119209	  0.096365	  0.102635	
11.7755	  0.119375	  0.099821	  0.102337	
11.8087	  0.121695	  0.102030	  0.102654	
11.842	  0.125936	  0.102766	  0.103593	
11.8752	  0.131376	  0.102154	  0.105054	
11.9085	  0.137232	  0.100538	  0.106875	
11.9418	  0.143000	  0.098323	  0.108862	
